HIERARCHY
ROOT Hips
{
	OFFSET 0.000000 97.167313 0.000000
	CHANNELS 6 Xposition Yposition Zposition Xrotation Yrotation Zrotation
	JOINT Spine
	{
		OFFSET 0.000000 13.784798 0.064400
		CHANNELS 3 Xrotation Yrotation Zrotation
		JOINT Spine1
		{
			OFFSET 0.000000 12.037903 0.404700
			CHANNELS 3 Xrotation Yrotation Zrotation
			JOINT Spine2
			{
				OFFSET 0.000000 17.795601 0.420200
				CHANNELS 3 Xrotation Yrotation Zrotation
				JOINT Neck
				{
					OFFSET 0.000000 39.131302 11.954600
					CHANNELS 3 Xrotation Yrotation Zrotation
					JOINT Head
					{
						OFFSET 0.000000 14.456192 15.627699
						CHANNELS 3 Xrotation Yrotation Zrotation
						JOINT HeadTop_End
						{
							OFFSET 0.000000 15.703506 7.603401
							CHANNELS 3 Xrotation Yrotation Zrotation
							End Site
							{
								OFFSET 0.000000 17.447403 0.000000
							}
						}
					}
				}
				JOINT LeftShoulder
				{
					OFFSET 17.399500 24.608795 1.168800
					CHANNELS 3 Xrotation Yrotation Zrotation
					JOINT LeftArm
					{
						OFFSET 18.980635 5.765305 1.818600
						CHANNELS 3 Xrotation Yrotation Zrotation
						JOINT LeftForeArm
						{
							OFFSET 49.290169 0.000000 0.000000
							CHANNELS 3 Xrotation Yrotation Zrotation
							JOINT LeftHand
							{
								OFFSET 31.562012 0.000000 0.000000
								CHANNELS 3 Xrotation Yrotation Zrotation
								JOINT LeftHandThumb1
								{
									OFFSET 6.133995 -4.388519 7.076070
									CHANNELS 3 Xrotation Yrotation Zrotation
									JOINT LeftHandThumb2
									{
										OFFSET 6.037666 -3.485840 3.485847
										CHANNELS 3 Xrotation Yrotation Zrotation
										JOINT LeftHandThumb3
										{
											OFFSET 6.496506 -3.750763 3.750761
											CHANNELS 3 Xrotation Yrotation Zrotation
											JOINT LeftHandThumb4
											{
												OFFSET 5.616882 -3.242905 3.242910
												CHANNELS 3 Xrotation Yrotation Zrotation
												End Site
												{
													OFFSET -1.254608 7.132141 0.375429
												}
											}
										}
									}
								}
								JOINT LeftHandPinky1
								{
									OFFSET 18.920792 -0.453171 -11.426712
									CHANNELS 3 Xrotation Yrotation Zrotation
									JOINT LeftHandPinky2
									{
										OFFSET 4.919586 0.000000 0.000000
										CHANNELS 3 Xrotation Yrotation Zrotation
										JOINT LeftHandPinky3
										{
											OFFSET 5.233047 0.000000 0.000000
											CHANNELS 3 Xrotation Yrotation Zrotation
											JOINT LeftHandPinky4
											{
												OFFSET 5.571716 0.000000 0.000000
												CHANNELS 3 Xrotation Yrotation Zrotation
												End Site
												{
													OFFSET -3.459808 4.342407 -0.466164
												}
											}
										}
									}
								}
								JOINT LeftHandRing1
								{
									OFFSET 22.726120 -0.094986 -6.500475
									CHANNELS 3 Xrotation Yrotation Zrotation
									JOINT LeftHandRing2
									{
										OFFSET 6.408615 0.000000 0.000000
										CHANNELS 3 Xrotation Yrotation Zrotation
										JOINT LeftHandRing3
										{
											OFFSET 6.150223 0.000000 0.000000
											CHANNELS 3 Xrotation Yrotation Zrotation
											JOINT LeftHandRing4
											{
												OFFSET 6.145386 0.000000 0.000000
												CHANNELS 3 Xrotation Yrotation Zrotation
												End Site
												{
													OFFSET -3.671402 4.923981 -0.202372
												}
											}
										}
									}
								}
								JOINT LeftHandMiddle1
								{
									OFFSET 23.373947 0.000000 0.000001
									CHANNELS 3 Xrotation Yrotation Zrotation
									JOINT LeftHandMiddle2
									{
										OFFSET 6.996567 0.000000 0.000000
										CHANNELS 3 Xrotation Yrotation Zrotation
										JOINT LeftHandMiddle3
										{
											OFFSET 7.015945 0.000000 0.000000
											CHANNELS 3 Xrotation Yrotation Zrotation
											JOINT LeftHandMiddle4
											{
												OFFSET 7.721573 0.000000 0.000000
												CHANNELS 3 Xrotation Yrotation Zrotation
												End Site
												{
													OFFSET -4.651108 6.158463 0.251582
												}
											}
										}
									}
								}
								JOINT LeftHandIndex1
								{
									OFFSET 21.310577 -0.490082 6.209344
									CHANNELS 3 Xrotation Yrotation Zrotation
									JOINT LeftHandIndex2
									{
										OFFSET 7.536453 0.000000 0.000000
										CHANNELS 3 Xrotation Yrotation Zrotation
										JOINT LeftHandIndex3
										{
											OFFSET 7.512344 0.000000 0.000000
											CHANNELS 3 Xrotation Yrotation Zrotation
											JOINT LeftHandIndex4
											{
												OFFSET 10.212402 0.000000 0.000001
												CHANNELS 3 Xrotation Yrotation Zrotation
												End Site
												{
													OFFSET -5.180801 8.690506 1.388433
												}
											}
										}
									}
								}
							}
						}
					}
				}
				JOINT RightShoulder
				{
					OFFSET -17.399500 24.608795 1.168800
					CHANNELS 3 Xrotation Yrotation Zrotation
					JOINT RightArm
					{
						OFFSET -18.980635 5.765305 1.818600
						CHANNELS 3 Xrotation Yrotation Zrotation
						JOINT RightForeArm
						{
							OFFSET -49.290169 0.000000 0.000000
							CHANNELS 3 Xrotation Yrotation Zrotation
							JOINT RightHand
							{
								OFFSET -31.562012 0.000000 0.000000
								CHANNELS 3 Xrotation Yrotation Zrotation
								JOINT RightHandThumb1
								{
									OFFSET -6.133995 -4.388519 7.076070
									CHANNELS 3 Xrotation Yrotation Zrotation
									JOINT RightHandThumb2
									{
										OFFSET -6.037666 -3.485840 3.485847
										CHANNELS 3 Xrotation Yrotation Zrotation
										JOINT RightHandThumb3
										{
											OFFSET -6.496506 -3.750763 3.750761
											CHANNELS 3 Xrotation Yrotation Zrotation
											JOINT RightHandThumb4
											{
												OFFSET -5.616882 -3.242905 3.242910
												CHANNELS 3 Xrotation Yrotation Zrotation
												End Site
												{
													OFFSET 1.254608 7.132141 0.375429
												}
											}
										}
									}
								}
								JOINT RightHandIndex1
								{
									OFFSET -21.310577 -0.490082 6.209344
									CHANNELS 3 Xrotation Yrotation Zrotation
									JOINT RightHandIndex2
									{
										OFFSET -7.536453 0.000000 0.000000
										CHANNELS 3 Xrotation Yrotation Zrotation
										JOINT RightHandIndex3
										{
											OFFSET -7.512344 0.000000 0.000000
											CHANNELS 3 Xrotation Yrotation Zrotation
											JOINT RightHandIndex4
											{
												OFFSET -10.212402 0.000000 0.000001
												CHANNELS 3 Xrotation Yrotation Zrotation
												End Site
												{
													OFFSET 5.180801 8.690506 1.388433
												}
											}
										}
									}
								}
								JOINT RightHandMiddle1
								{
									OFFSET -23.373947 0.000000 0.000001
									CHANNELS 3 Xrotation Yrotation Zrotation
									JOINT RightHandMiddle2
									{
										OFFSET -6.996567 0.000000 0.000000
										CHANNELS 3 Xrotation Yrotation Zrotation
										JOINT RightHandMiddle3
										{
											OFFSET -7.015945 0.000000 0.000000
											CHANNELS 3 Xrotation Yrotation Zrotation
											JOINT RightHandMiddle4
											{
												OFFSET -7.721573 0.000000 0.000000
												CHANNELS 3 Xrotation Yrotation Zrotation
												End Site
												{
													OFFSET 4.651108 6.158463 0.251582
												}
											}
										}
									}
								}
								JOINT RightHandRing1
								{
									OFFSET -22.726120 -0.094986 -6.500475
									CHANNELS 3 Xrotation Yrotation Zrotation
									JOINT RightHandRing2
									{
										OFFSET -6.408615 0.000000 0.000000
										CHANNELS 3 Xrotation Yrotation Zrotation
										JOINT RightHandRing3
										{
											OFFSET -6.150223 0.000000 0.000000
											CHANNELS 3 Xrotation Yrotation Zrotation
											JOINT RightHandRing4
											{
												OFFSET -6.145386 0.000000 0.000000
												CHANNELS 3 Xrotation Yrotation Zrotation
												End Site
												{
													OFFSET 3.671402 4.923981 -0.202372
												}
											}
										}
									}
								}
								JOINT RightHandPinky1
								{
									OFFSET -18.920792 -0.453171 -11.426712
									CHANNELS 3 Xrotation Yrotation Zrotation
									JOINT RightHandPinky2
									{
										OFFSET -4.919586 0.000000 0.000000
										CHANNELS 3 Xrotation Yrotation Zrotation
										JOINT RightHandPinky3
										{
											OFFSET -5.233047 0.000000 0.000000
											CHANNELS 3 Xrotation Yrotation Zrotation
											JOINT RightHandPinky4
											{
												OFFSET -5.571716 0.000000 0.000000
												CHANNELS 3 Xrotation Yrotation Zrotation
												End Site
												{
													OFFSET 3.459808 4.342407 -0.466164
												}
											}
										}
									}
								}
							}
						}
					}
				}
			}
		}
	}
	JOINT LeftUpLeg
	{
		OFFSET 19.899099 -7.885101 -3.429500
		CHANNELS 3 Xrotation Yrotation Zrotation
		JOINT LeftLeg
		{
			OFFSET 1.745560 -36.997807 10.304700
			CHANNELS 3 Xrotation Yrotation Zrotation
			JOINT LeftFoot
			{
				OFFSET -1.745558 -29.803308 -13.615400
				CHANNELS 3 Xrotation Yrotation Zrotation
				JOINT LeftToeBase
				{
					OFFSET 1.181900 -18.539904 15.226099
					CHANNELS 3 Xrotation Yrotation Zrotation
					JOINT LeftToe_End
					{
						OFFSET -0.863701 1.402801 16.534700
						CHANNELS 3 Xrotation Yrotation Zrotation
						End Site
						{
							OFFSET 0.000000 16.616566 0.000000
						}
					}
				}
			}
		}
	}
	JOINT RightUpLeg
	{
		OFFSET -19.899099 -7.885101 -3.429500
		CHANNELS 3 Xrotation Yrotation Zrotation
		JOINT RightLeg
		{
			OFFSET -1.745560 -36.997807 10.304700
			CHANNELS 3 Xrotation Yrotation Zrotation
			JOINT RightFoot
			{
				OFFSET 1.745558 -29.803308 -13.615400
				CHANNELS 3 Xrotation Yrotation Zrotation
				JOINT RightToeBase
				{
					OFFSET -1.181900 -18.539904 15.226099
					CHANNELS 3 Xrotation Yrotation Zrotation
					JOINT RightToe_End
					{
						OFFSET 0.863701 1.402801 16.534700
						CHANNELS 3 Xrotation Yrotation Zrotation
						End Site
						{
							OFFSET 0.000000 16.616566 0.000000
						}
					}
				}
			}
		}
	}
}
MOTION
Frames: 4
Frame Time: 0.033333
-0.927724 91.668068 5.712546 -5.415441 -9.724355 -1.801758 1.977290 0.425786 1.429897 3.944819 0.908881 2.722906 3.944817 0.908878 2.722905 0.659173 -0.892305 -2.176224 0.432913 -13.196984 3.531405 0.000000 0.000000 -0.000000 1.267860 -17.787874 -4.549090 48.892471 -30.143879 -51.134280 0.608545 -71.196212 0.576055 40.668709 -27.937963 63.171696 -32.178117 -8.438017 31.495935 7.659921 27.223094 8.919114 -26.795327 -32.191634 -14.256387 0.000000 -0.000002 -0.000002 2.271125 10.291391 -33.272891 1.199300 3.668727 -45.582128 0.454549 2.671345 -20.645008 -0.000002 -0.000001 -0.000007 -0.213359 5.206422 -22.986121 1.621484 3.620682 -40.921548 0.517418 1.673533 -19.450559 -0.000001 0.000001 0.000003 -0.685448 1.820802 -12.834032 0.813362 3.674821 -33.111634 0.166944 1.395162 -12.660620 0.000001 0.000001 0.000006 0.344493 -2.495995 -5.048873 0.349449 2.633716 -20.508838 0.025826 0.717425 -10.176837 0.000000 0.000005 0.000002 1.487595 15.494737 10.705500 -50.181400 20.651347 54.195417 0.377991 149.581976 -0.193391 11.622769 -15.639532 -30.925751 3.706765 15.240683 -15.420245 -9.251120 -27.806007 -13.185607 -28.959548 32.229515 20.960312 0.000001 -0.000002 -0.000000 2.669563 -9.408660 -6.374062 3.392873 -5.677803 69.352750 -0.179619 0.574505 6.913061 0.000001 -0.000001 -0.000001 0.475289 -10.021942 3.729808 4.545737 -6.052006 84.007276 -1.804559 2.472578 23.140519 0.000001 0.000001 -0.000006 0.245919 -4.826066 4.997228 7.048941 -4.648389 105.392660 -2.661609 2.760740 32.820855 -0.000001 -0.000000 -0.000003 -7.792416 -6.480247 1.108545 6.193082 -5.411111 106.834418 -2.348992 1.864616 23.700304 0.000000 -0.000001 -0.000001 -7.196315 16.470516 16.133754 21.060953 3.413501 -0.211132 -7.668128 3.483724 -11.617568 -4.967360 0.000007 -0.000000 0.000000 0.000000 -0.000000 3.877282 -3.846762 8.371436 17.526935 -6.165295 -1.350934 -17.580181 -1.082032 -4.564967 0.334196 0.000001 -0.000001 0.000000 -0.000001 -0.000000 
-0.818044 91.629608 5.753206 -5.201905 -9.683086 -1.831346 1.964265 0.422311 1.439109 3.918815 0.901981 2.736273 3.918815 0.901983 2.736272 0.622712 -0.894113 -2.137388 0.843880 -12.983487 3.990444 -0.000000 -0.000001 -0.000001 1.266348 -17.662879 -4.515592 48.566415 -29.902514 -51.601946 0.591407 -71.150128 0.559686 40.964715 -28.200792 62.843164 -31.882292 -8.733976 31.584618 7.607279 27.216135 8.805497 -26.682619 -32.093990 -14.129660 0.000001 -0.000000 -0.000002 2.128929 10.082552 -33.031000 1.199974 3.669538 -45.593767 0.454546 2.671348 -20.644848 -0.000003 0.000006 -0.000003 -0.297012 4.955392 -22.768656 1.622630 3.621723 -40.938634 0.517429 1.673499 -19.450019 -0.000003 -0.000007 0.000003 -0.723199 1.548827 -12.633560 0.813347 3.674800 -33.111698 0.166910 1.395114 -12.659790 -0.000001 -0.000000 0.000001 0.371119 -2.775328 -4.851095 0.349432 2.633694 -20.508690 0.025839 0.717448 -10.176834 -0.000001 0.000003 0.000001 1.492116 15.431703 10.753814 -49.559381 21.033378 54.149183 0.376656 149.588970 -0.192656 11.907391 -15.658890 -31.684889 3.706801 15.240684 -15.420248 -9.251120 -27.806074 -13.185627 -28.959357 32.229658 20.960129 0.000001 -0.000002 0.000002 2.669208 -9.410332 -6.374238 3.392876 -5.677816 69.352723 -0.179607 0.574500 6.913038 0.000001 -0.000001 0.000001 0.475301 -10.022032 3.729854 4.545736 -6.052003 84.007215 -1.804647 2.472344 23.142460 -0.000000 0.000000 -0.000001 0.245842 -4.824486 4.997389 7.048944 -4.648384 105.392667 -2.661619 2.760754 32.820848 0.000001 -0.000000 -0.000003 -7.792430 -6.480230 1.108533 6.193090 -5.411113 106.834424 -2.348989 1.864612 23.700318 -0.000000 0.000000 0.000001 -7.543331 16.481127 16.132458 21.285473 3.329838 -0.232122 -7.815903 3.493450 -11.476686 -4.903584 0.000009 0.000002 0.000001 0.000002 0.000000 3.639443 -3.943893 8.324247 17.601623 -6.050287 -1.307283 -17.578409 -1.096378 -4.492182 0.319443 -0.000002 0.000001 0.000000 -0.000002 -0.000000 
-0.681900 91.542450 5.769410 -5.006162 -9.680679 -1.937982 1.966358 0.414550 1.462607 3.923017 0.886805 2.780403 3.923019 0.886809 2.780403 0.590176 -0.895535 -2.105008 0.709172 -12.899138 4.162241 -0.000000 0.000000 -0.000001 1.263624 -17.590724 -4.509375 48.201772 -29.674652 -52.085267 0.579380 -71.014481 0.547835 41.296430 -28.514786 62.674171 -31.575725 -8.865535 31.715051 7.553472 27.206202 8.691539 -26.568159 -31.993528 -14.000919 0.000001 -0.000001 -0.000003 2.064759 9.990713 -32.865873 1.200239 3.669810 -45.597971 0.454526 2.671319 -20.644628 0.000004 -0.000007 -0.000005 -0.329859 4.845652 -22.613725 1.623209 3.622266 -40.947462 0.517388 1.673456 -19.449421 -0.000000 0.000001 0.000002 -0.733359 1.430272 -12.486748 0.813389 3.674870 -33.112532 0.166911 1.395017 -12.658944 -0.000002 0.000001 0.000004 0.394039 -2.895483 -4.704689 0.349427 2.633675 -20.508558 0.025822 0.717426 -10.176837 0.000001 0.000003 0.000001 1.508499 15.317078 10.772427 -49.371107 21.146518 54.144586 0.376513 149.589858 -0.192597 12.077532 -15.370525 -32.006133 3.706825 15.240703 -15.420218 -9.251112 -27.806315 -13.185689 -28.959186 32.229839 20.959943 -0.000001 0.000005 -0.000002 2.668858 -9.412010 -6.374445 3.392873 -5.677811 69.352750 -0.179608 0.574505 6.913043 -0.000002 -0.000003 -0.000001 0.475309 -10.022115 3.729883 4.545729 -6.052004 84.007154 -1.804729 2.472105 23.144362 -0.000000 0.000001 -0.000008 0.245773 -4.822911 4.997523 7.048940 -4.648391 105.392653 -2.661614 2.760746 32.820872 -0.000000 -0.000002 -0.000003 -7.792448 -6.480212 1.108553 6.193085 -5.411106 106.834418 -2.348995 1.864613 23.700316 -0.000000 -0.000001 0.000000 -7.993711 16.423605 16.193754 21.756902 3.311527 -0.166749 -8.091184 3.527098 -11.408260 -4.736891 -0.000004 -0.000001 -0.000000 -0.000000 -0.000000 3.379562 -4.089592 8.325896 17.757435 -5.873149 -1.203764 -17.643226 -1.073117 -4.529100 0.284673 0.000012 -0.000001 0.000000 0.000001 0.000000 
-0.520362 91.449326 5.771501 -4.853316 -9.733304 -2.106093 1.983101 0.400218 1.503440 3.956560 0.860055 2.855377 3.956559 0.860055 2.855376 0.553233 -0.895523 -2.091504 0.328076 -12.995532 4.146575 -0.000000 -0.000000 -0.000000 1.274465 -17.584559 -4.421718 47.748213 -29.594803 -52.639749 0.572705 -70.730605 0.540620 41.634794 -28.864673 62.726757 -31.270682 -8.922402 31.830891 7.498851 27.195566 8.577378 -26.451974 -31.890222 -13.870249 -0.000000 -0.000000 -0.000001 2.029620 9.940971 -32.759213 1.200415 3.670013 -45.600979 0.454506 2.671297 -20.644387 0.000000 0.000001 -0.000004 -0.346809 4.785517 -22.513130 1.623552 3.622600 -40.952776 0.517370 1.673400 -19.448784 -0.000002 -0.000002 -0.000000 -0.737208 1.364943 -12.390019 0.813479 3.674999 -33.114014 0.166893 1.394945 -12.658101 -0.000000 -0.000002 0.000008 0.408380 -2.961118 -4.607979 0.349419 2.633671 -20.508408 0.025837 0.717433 -10.176833 -0.000000 0.000001 0.000001 1.510391 15.289378 10.779916 -49.570433 21.053741 54.110429 0.378091 149.584886 -0.193429 12.144024 -15.045346 -31.937138 3.706872 15.240718 -15.420236 -9.251104 -27.806629 -13.185733 -28.958981 32.230000 20.959706 -0.000001 0.000003 -0.000000 2.668501 -9.413664 -6.374642 3.392864 -5.677811 69.352730 -0.179609 0.574503 6.913019 -0.000001 -0.000001 -0.000001 0.475313 -10.022200 3.729886 4.545722 -6.052001 84.007113 -1.804819 2.471877 23.146294 -0.000000 0.000001 -0.000001 0.245698 -4.821350 4.997643 7.048941 -4.648386 105.392619 -2.661616 2.760749 32.820872 -0.000001 -0.000001 -0.000000 -7.792461 -6.480199 1.108555 6.193084 -5.411103 106.834452 -2.348988 1.864616 23.700312 -0.000000 -0.000003 0.000000 -8.403971 16.262569 16.265237 22.319474 3.450119 -0.016385 -8.424915 3.575552 -11.438817 -4.673915 -0.000004 -0.000000 0.000000 0.000003 0.000000 3.162564 -4.170413 8.394768 17.872163 -5.727137 -1.119128 -17.712139 -1.035246 -4.634740 0.263428 0.000014 -0.000001 0.000000 0.000000 -0.000000 
